<svg xmlns="http://www.w3.org/2000/svg" width="32" height="32" viewBox="0 0 32 32" fill="none" aria-hidden="true" focusable="false">
  <title>Weather Garden — Éclaircie (source externe)</title>
  <desc>Alternance de soleil et de nuages.</desc>
  <circle cx="12" cy="12" r="4.1" fill="none" stroke="#647067" stroke-width="2.15" stroke-linecap="round" stroke-linejoin="round" vector-effect="non-scaling-stroke"/><path d="M12 3.9 L12 6.3" stroke="#647067" stroke-width="1.8" stroke-linecap="round" stroke-linejoin="round" vector-effect="non-scaling-stroke"/><path d="M12 17.7 L12 20.1" stroke="#647067" stroke-width="1.8" stroke-linecap="round" stroke-linejoin="round" vector-effect="non-scaling-stroke"/><path d="M3.9 12 L6.3 12" stroke="#647067" stroke-width="1.8" stroke-linecap="round" stroke-linejoin="round" vector-effect="non-scaling-stroke"/><path d="M17.7 12 L20.1 12" stroke="#647067" stroke-width="1.8" stroke-linecap="round" stroke-linejoin="round" vector-effect="non-scaling-stroke"/><path d="M4.7 4.7 L6.5 6.5" stroke="#647067" stroke-width="1.8" stroke-linecap="round" stroke-linejoin="round" vector-effect="non-scaling-stroke"/><path d="M17.5 17.5 L19.3 19.3" stroke="#647067" stroke-width="1.8" stroke-linecap="round" stroke-linejoin="round" vector-effect="non-scaling-stroke"/><path d="M17.5 6.5 L19.3 4.7" stroke="#647067" stroke-width="1.8" stroke-linecap="round" stroke-linejoin="round" vector-effect="non-scaling-stroke"/><path d="M6.5 17.5 L4.7 19.3" stroke="#647067" stroke-width="1.8" stroke-linecap="round" stroke-linejoin="round" vector-effect="non-scaling-stroke"/><path d="M11 22h11.1c2.6 0 4.5-1.6 4.5-3.9s-1.8-3.9-4.2-3.9c-.7-2.7-2.9-4.3-5.7-4.3-2.6 0-4.6 1.5-5.4 3.9-2.6.2-4.5 1.9-4.5 4.1 0 2.4 1.9 4.1 4.2 4.1Z" fill="none" stroke="#647067" stroke-width="2.15" stroke-linecap="round" stroke-linejoin="round" vector-effect="non-scaling-stroke"/>
</svg>
