<svg xmlns="http://www.w3.org/2000/svg" width="32" height="32" viewBox="0 0 32 32" fill="none" aria-hidden="true" focusable="false">
  <title>Weather Garden — Vent (WGF)</title>
  <desc>Vent moyen perceptible.</desc>
  <path d="M6 12h16.2c2 0 3.3-1.2 3.3-2.8 0-1.7-1.2-2.9-2.9-2.9-1.2 0-2.2.7-2.7 1.7" stroke="#2D6A4F" stroke-width="2.15" stroke-linecap="round" stroke-linejoin="round" vector-effect="non-scaling-stroke"/><path d="M5.5 17h18.8" stroke="#2D6A4F" stroke-width="2.15" stroke-linecap="round" stroke-linejoin="round" vector-effect="non-scaling-stroke"/><path d="M8 22h10.2c1.8 0 3 1.1 3 2.5 0 1.5-1.1 2.6-2.6 2.6-1.1 0-2-.6-2.4-1.5" stroke="#2D6A4F" stroke-width="2.15" stroke-linecap="round" stroke-linejoin="round" vector-effect="non-scaling-stroke"/><path d="M19.5 26.5c3.1-.2 4.9-1.7 5.6-4.5-3.3-.2-5.1 1.2-5.6 4.5Z" fill="#588157" opacity="0.42"/><path d="M19.9 26.2c1.3-1.5 2.8-2.4 4.7-3" stroke="#2D6A4F" stroke-width="1.8" stroke-linecap="round" stroke-linejoin="round" vector-effect="non-scaling-stroke"/>
</svg>
