<svg xmlns="http://www.w3.org/2000/svg" width="32" height="32" viewBox="0 0 32 32" fill="none" aria-hidden="true" focusable="false">
  <title>Weather Garden — Pluie faible (WGF)</title>
  <desc>Pluie légère ou bruine utile au jardin.</desc>
  <path d="M11 22h11.1c2.6 0 4.5-1.6 4.5-3.9s-1.8-3.9-4.2-3.9c-.7-2.7-2.9-4.3-5.7-4.3-2.6 0-4.6 1.5-5.4 3.9-2.6.2-4.5 1.9-4.5 4.1 0 2.4 1.9 4.1 4.2 4.1Z" fill="#FFFFFF" stroke="#2D6A4F" stroke-width="2.15" stroke-linecap="round" stroke-linejoin="round" vector-effect="non-scaling-stroke"/><path d="M13 24.3l-1.2 2.9" stroke="#277DA1" stroke-width="2.0" stroke-linecap="round" vector-effect="non-scaling-stroke"/><path d="M19 24.9l-1.2 2.9" stroke="#277DA1" stroke-width="2.0" stroke-linecap="round" vector-effect="non-scaling-stroke"/><path d="M19.5 26.5c3.1-.2 4.9-1.7 5.6-4.5-3.3-.2-5.1 1.2-5.6 4.5Z" fill="#588157" opacity="0.42"/><path d="M19.9 26.2c1.3-1.5 2.8-2.4 4.7-3" stroke="#2D6A4F" stroke-width="1.8" stroke-linecap="round" stroke-linejoin="round" vector-effect="non-scaling-stroke"/>
</svg>
