<svg xmlns="http://www.w3.org/2000/svg" width="32" height="32" viewBox="0 0 32 32" fill="none" aria-hidden="true" focusable="false">
  <title>Weather Garden — Nuage (WGF)</title>
  <desc>Ciel couvert ou dominante nuageuse.</desc>
  <path d="M10.2 22.3h12.4c3.1 0 5.2-1.8 5.2-4.5 0-2.5-2-4.4-4.8-4.4-.8-3.4-3.4-5.4-6.7-5.4-3.1 0-5.5 1.8-6.5 4.7-3 .2-5.3 2.2-5.3 4.9 0 2.8 2.2 4.7 5.7 4.7Z" fill="#FFFFFF" stroke="#2D6A4F" stroke-width="2.15" stroke-linecap="round" stroke-linejoin="round" vector-effect="non-scaling-stroke"/><path d="M19.5 26.5c3.1-.2 4.9-1.7 5.6-4.5-3.3-.2-5.1 1.2-5.6 4.5Z" fill="#588157" opacity="0.42"/><path d="M19.9 26.2c1.3-1.5 2.8-2.4 4.7-3" stroke="#2D6A4F" stroke-width="1.8" stroke-linecap="round" stroke-linejoin="round" vector-effect="non-scaling-stroke"/>
</svg>
