<svg xmlns="http://www.w3.org/2000/svg" width="32" height="32" viewBox="0 0 32 32" fill="none" aria-hidden="true" focusable="false">
  <title>Weather Garden — Gel / froid (WGF)</title>
  <desc>Température basse ou risque de gel.</desc>
  <path d="M16 6v20M8.5 10.5l15 11M23.5 10.5l-15 11" stroke="#3A86A8" stroke-width="2.15" stroke-linecap="round" stroke-linejoin="round" vector-effect="non-scaling-stroke"/><path d="M12.2 8.4L16 11.2l3.8-2.8M12.2 23.6L16 20.8l3.8 2.8M6.8 15.1l4.5.4 1.7-4.1M25.2 16.9l-4.5-.4-1.7 4.1M25.2 15.1l-4.5.4-1.7-4.1M6.8 16.9l4.5-.4 1.7 4.1" stroke="#3A86A8" stroke-width="1.8" stroke-linecap="round" stroke-linejoin="round" vector-effect="non-scaling-stroke"/><path d="M19.5 26.5c3.1-.2 4.9-1.7 5.6-4.5-3.3-.2-5.1 1.2-5.6 4.5Z" fill="#588157" opacity="0.42"/><path d="M19.9 26.2c1.3-1.5 2.8-2.4 4.7-3" stroke="#2D6A4F" stroke-width="1.8" stroke-linecap="round" stroke-linejoin="round" vector-effect="non-scaling-stroke"/>
</svg>
